<mxfile host="app.diagrams.net" modified="2024-04-07T13:29:51.807Z" agent="Mozilla/5.0 (Windows NT 10.0; Win64; x64) AppleWebKit/537.36 (KHTML, like Gecko) Chrome/123.0.0.0 Safari/537.36" etag="f_jJvxUZ2Md29qp3VTEL" version="24.2.2" type="github">
  <diagram name="Page-1" id="IomgREvoMwxG9YTv1Iqu">
    <mxGraphModel dx="794" dy="458" grid="1" gridSize="10" guides="1" tooltips="1" connect="1" arrows="1" fold="1" page="1" pageScale="1" pageWidth="850" pageHeight="1100" math="0" shadow="0">
      <root>
        <mxCell id="0" />
        <mxCell id="1" parent="0" />
        <mxCell id="-SI3zyb_Hw-BTaH6lEHd-1" value="" style="whiteSpace=wrap;html=1;aspect=fixed;" vertex="1" parent="1">
          <mxGeometry x="200" y="30" width="250" height="250" as="geometry" />
        </mxCell>
        <mxCell id="-SI3zyb_Hw-BTaH6lEHd-2" value="" style="whiteSpace=wrap;html=1;aspect=fixed;" vertex="1" parent="1">
          <mxGeometry x="370" y="200" width="80" height="80" as="geometry" />
        </mxCell>
        <mxCell id="-SI3zyb_Hw-BTaH6lEHd-3" value="" style="whiteSpace=wrap;html=1;aspect=fixed;" vertex="1" parent="1">
          <mxGeometry x="240" y="200" width="40" height="40" as="geometry" />
        </mxCell>
        <mxCell id="-SI3zyb_Hw-BTaH6lEHd-4" value="" style="whiteSpace=wrap;html=1;aspect=fixed;" vertex="1" parent="1">
          <mxGeometry x="200" y="200" width="40" height="40" as="geometry" />
        </mxCell>
        <mxCell id="-SI3zyb_Hw-BTaH6lEHd-5" value="" style="whiteSpace=wrap;html=1;aspect=fixed;" vertex="1" parent="1">
          <mxGeometry x="240" y="240" width="40" height="40" as="geometry" />
        </mxCell>
        <mxCell id="-SI3zyb_Hw-BTaH6lEHd-6" value="" style="whiteSpace=wrap;html=1;aspect=fixed;" vertex="1" parent="1">
          <mxGeometry x="200" y="240" width="40" height="40" as="geometry" />
        </mxCell>
        <mxCell id="-SI3zyb_Hw-BTaH6lEHd-7" value="WSL&lt;div&gt;10.0.0.2&lt;/div&gt;" style="text;html=1;align=center;verticalAlign=middle;whiteSpace=wrap;rounded=0;" vertex="1" parent="1">
          <mxGeometry x="380" y="230" width="60" height="30" as="geometry" />
        </mxCell>
        <mxCell id="-SI3zyb_Hw-BTaH6lEHd-9" value="Computer&lt;div&gt;192.168.1.2&lt;/div&gt;" style="text;html=1;align=center;verticalAlign=middle;whiteSpace=wrap;rounded=0;" vertex="1" parent="1">
          <mxGeometry x="295" y="100" width="60" height="30" as="geometry" />
        </mxCell>
        <mxCell id="-SI3zyb_Hw-BTaH6lEHd-10" value="vm1" style="text;html=1;align=center;verticalAlign=middle;whiteSpace=wrap;rounded=0;" vertex="1" parent="1">
          <mxGeometry x="190" y="205" width="60" height="30" as="geometry" />
        </mxCell>
        <mxCell id="-SI3zyb_Hw-BTaH6lEHd-11" value="vm2" style="text;html=1;align=center;verticalAlign=middle;whiteSpace=wrap;rounded=0;" vertex="1" parent="1">
          <mxGeometry x="230" y="205" width="60" height="30" as="geometry" />
        </mxCell>
        <mxCell id="-SI3zyb_Hw-BTaH6lEHd-12" value="vm3" style="text;html=1;align=center;verticalAlign=middle;whiteSpace=wrap;rounded=0;" vertex="1" parent="1">
          <mxGeometry x="190" y="245" width="60" height="30" as="geometry" />
        </mxCell>
        <mxCell id="-SI3zyb_Hw-BTaH6lEHd-13" value="vm4" style="text;html=1;align=center;verticalAlign=middle;whiteSpace=wrap;rounded=0;" vertex="1" parent="1">
          <mxGeometry x="230" y="245" width="60" height="30" as="geometry" />
        </mxCell>
        <mxCell id="-SI3zyb_Hw-BTaH6lEHd-18" value="" style="image;html=1;image=img/lib/clip_art/networking/Firewall_02_128x128.png" vertex="1" parent="1">
          <mxGeometry x="440" y="60" width="80" height="80" as="geometry" />
        </mxCell>
        <mxCell id="-SI3zyb_Hw-BTaH6lEHd-19" value="" style="rounded=1;whiteSpace=wrap;html=1;dashed=1;dashPattern=1 4;" vertex="1" parent="1">
          <mxGeometry x="370" y="30" width="80" height="40" as="geometry" />
        </mxCell>
        <mxCell id="-SI3zyb_Hw-BTaH6lEHd-20" value="openssh server" style="text;html=1;align=center;verticalAlign=middle;whiteSpace=wrap;rounded=0;" vertex="1" parent="1">
          <mxGeometry x="380" y="40" width="60" height="30" as="geometry" />
        </mxCell>
        <mxCell id="-SI3zyb_Hw-BTaH6lEHd-21" value="Windows Defender Firewall" style="text;html=1;align=center;verticalAlign=middle;whiteSpace=wrap;rounded=0;" vertex="1" parent="1">
          <mxGeometry x="450" y="140" width="60" height="30" as="geometry" />
        </mxCell>
        <mxCell id="-SI3zyb_Hw-BTaH6lEHd-23" value="" style="outlineConnect=0;dashed=0;verticalLabelPosition=bottom;verticalAlign=top;align=center;html=1;shape=mxgraph.aws3.router;fillColor=#F58536;gradientColor=none;" vertex="1" parent="1">
          <mxGeometry x="600" y="119" width="69" height="72" as="geometry" />
        </mxCell>
        <mxCell id="-SI3zyb_Hw-BTaH6lEHd-24" value="" style="endArrow=classic;html=1;rounded=0;entryX=0.145;entryY=0.855;entryDx=0;entryDy=0;entryPerimeter=0;" edge="1" parent="1" target="-SI3zyb_Hw-BTaH6lEHd-23">
          <mxGeometry width="50" height="50" relative="1" as="geometry">
            <mxPoint x="450" y="241" as="sourcePoint" />
            <mxPoint x="500" y="191" as="targetPoint" />
          </mxGeometry>
        </mxCell>
        <mxCell id="-SI3zyb_Hw-BTaH6lEHd-25" value="" style="endArrow=classic;html=1;rounded=0;entryX=0.5;entryY=1;entryDx=0;entryDy=0;" edge="1" parent="1" source="-SI3zyb_Hw-BTaH6lEHd-23" target="-SI3zyb_Hw-BTaH6lEHd-20">
          <mxGeometry width="50" height="50" relative="1" as="geometry">
            <mxPoint x="380" y="170" as="sourcePoint" />
            <mxPoint x="430" y="120" as="targetPoint" />
          </mxGeometry>
        </mxCell>
      </root>
    </mxGraphModel>
  </diagram>
</mxfile>
